<?xml version="1.0" standalone="no"?>
<!DOCTYPE svg PUBLIC "-//W3C//DTD SVG 20010904//EN"
 "http://www.w3.org/TR/2001/REC-SVG-20010904/DTD/svg10.dtd">
<svg version="1.0" xmlns="http://www.w3.org/2000/svg"
 width="183.000000pt" height="182.000000pt" viewBox="0 0 183.000000 182.000000"
 preserveAspectRatio="xMidYMid meet">
<style>
  @media (prefers-color-scheme: dark) {
    .a { fill: #ffffff }
  }
</style>
<metadata>
Created by potrace 1.16, written by Peter Selinger 2001-2019
</metadata>
<g class="a" transform="translate(0.000000,182.000000) scale(0.100000,-0.100000)"
fill="#000000" stroke="none">
<path d="M717 1804 c-207 -37 -377 -131 -511 -281 -81 -90 -155 -252 -187
-408 -19 -89 -16 -333 5 -428 87 -395 373 -640 788 -677 174 -15 325 4 478 59
191 70 350 212 442 396 91 180 121 459 74 681 -35 165 -135 346 -244 444 -127
115 -303 196 -475 219 -105 15 -275 12 -370 -5z m330 -419 c108 -32 185 -137
219 -297 25 -114 15 -330 -19 -428 -46 -132 -112 -197 -227 -226 -128 -32
-270 -1 -349 77 -83 83 -127 248 -118 444 12 253 88 387 247 436 44 13 194 10
247 -6z"/>
</g>
</svg>
